:version 1.10
:name ASF
:units
  mass 1
  length 1
  angle deg
:documentation
  ASF file generated by Kaydara
:root
  axis xyz
  order  tx ty tz rx ry rz
  position 0 0 0
  orientation 0 0 0
:bonedata
  begin
    id 1
    name RightUpLegDummy
    direction -0.718183 -0.695806 0.00816078
    length 4.904
    axis 0 0 0 xyz
  end
  begin
    id 2
    name RightUpLeg
    direction 3.53989e-006 -0.995788 0.0916897
    length 17.4976
    axis -3.49089 -0.000906621 0.000287158 xyz
    dof rx ry rz
  end
  begin
    id 3
    name RightLeg
    direction 0.00371093 -0.995096 -0.0988418
    length 16.5821
    axis 3.68512 0.0193738 -0.131023 xyz
    dof rx ry rz
  end
  begin
    id 4
    name RightFoot
    direction 0.000791514 -0.46099 0.887405
    length 3.77069
    axis 4.84075e-005 -0.120479 -0.188788 xyz
    dof rx ry rz
  end
  begin
    id 5
    name RightToes
    direction 0.00124746 -0.014064 0.9999
    length 3.85082
    axis 0.00048216 0.542163 -0.142577 xyz
    dof rx ry rz
  end
  begin
    id 6
    name SpineDummy
    direction 8.36599e-015 1 5.97571e-016
    length 4.6813
    axis 0 0 0 xyz
  end
  begin
    id 7
    name Spine
    direction -4.63632e-008 0.999988 0.00495137
    length 10.1015
    axis -0.00138897 0.000121419 3.25764e-006 xyz
    dof rx ry rz
  end
  begin
    id 8
    name Spine1
    direction 0 0 0
    length 0
    axis -0.00138896 0.000121452 2.39764e-006 xyz
    dof rx ry rz
  end
  begin
    id 9
    name HEadDummy
    direction -3.91456e-008 0.999999 0.00127422
    length 3.43865
    axis -0.00138896 0.000121452 2.39764e-006 xyz
  end
  begin
    id 10
    name HEad
    direction -0.0222688 0.980941 0.193023
    length 5.12695
    axis -0.00138895 0.000121452 2.39764e-006 xyz
    dof rx ry rz
  end
  begin
    id 11
    name LeftShoulder1Dummy
    direction 0.998891 -0.0402508 -0.0244456
    length 3.5433
    axis -0.00138896 0.000121452 2.39764e-006 xyz
  end
  begin
    id 12
    name LeftShoulder1
    direction 0.99951 -0.000327743 0.0313091
    length 4.05031
    axis -0.00138896 0.000121452 2.39764e-006 xyz
    dof rx ry rz
  end
  begin
    id 13
    name LeftArm
    direction 0.998561 -0.00100054 -0.0536182
    length 10.3537
    axis -23.1894 0.134784 0.96751 xyz
    dof rx ry rz
  end
  begin
    id 14
    name LeftForeArm
    direction 0.998903 0.00866434 0.046012
    length 8.70632
    axis -9.91835 -0.06569 -0.177792 xyz
    dof rx ry rz
  end
  begin
    id 15
    name LeftHand
    direction 0.992938 -0.0411636 0.11126
    length 5.32135
    axis -0.00960227 -0.00340091 0.185174 xyz
    dof rx ry rz
  end
  begin
    id 16
    name RightShoulderDummy
    direction -0.998891 -0.0402509 -0.0244414
    length 3.5433
    axis -0.00138896 0.000121452 2.39764e-006 xyz
  end
  begin
    id 17
    name RightShoulder
    direction -0.99951 -0.000327827 0.0313133
    length 4.05031
    axis 0.215806 0.000203644 -0.00680151 xyz
    dof rx ry rz
  end
  begin
    id 18
    name RightArm
    direction -0.998573 -0.000999583 -0.053403
    length 10.3947
    axis -23.2009 -0.134239 -0.9641 xyz
    dof rx ry rz
  end
  begin
    id 19
    name RightForeArm
    direction -0.998898 0.00868026 0.0461306
    length 8.68355
    axis -9.92322 0.0658061 0.178869 xyz
    dof rx ry rz
  end
  begin
    id 20
    name RightHand
    direction -0.992843 -0.0414603 0.112003
    length 5.28593
    axis -0.00960634 0.00330671 -0.185226 xyz
    dof rx ry rz
  end
  begin
    id 21
    name LeftUpLegDummy
    direction 0.718183 -0.695806 0.00816078
    length 4.904
    axis 0 0 0 xyz
  end
  begin
    id 22
    name LeftUpLeg
    direction -6.8115e-006 -0.995793 0.0916336
    length 17.4976
    axis -3.48766 0.00143441 -0.000523914 xyz
    dof rx ry rz
  end
  begin
    id 23
    name LeftLeg
    direction -0.00601357 -0.995091 -0.0987824
    length 16.5821
    axis 3.68177 -0.00654038 -0.00028478 xyz
    dof rx ry rz
  end
  begin
    id 24
    name LeftFoot
    direction -0.00417578 -0.460984 0.887399
    length 3.77069
    axis 1.87232e-006 4.66002e-005 -8.1837e-006 xyz
    dof rx ry rz
  end
  begin
    id 25
    name LeftToes
    direction 0.00818058 -0.00485161 0.999955
    length 3.85048
    axis 1.06246e-005 4.65855e-005 -8.18502e-006 xyz
    dof rx ry rz
  end
:hierarchy
  begin
    root RightUpLegDummy SpineDummy LeftUpLegDummy
    RightUpLegDummy RightUpLeg
    RightUpLeg RightLeg
    RightLeg RightFoot
    RightFoot RightToes
    SpineDummy Spine
    Spine Spine1
    Spine1 HEadDummy LeftShoulder1Dummy RightShoulderDummy
    HEadDummy HEad
    LeftShoulder1Dummy LeftShoulder1
    LeftShoulder1 LeftArm
    LeftArm LeftForeArm
    LeftForeArm LeftHand
    RightShoulderDummy RightShoulder
    RightShoulder RightArm
    RightArm RightForeArm
    RightForeArm RightHand
    LeftUpLegDummy LeftUpLeg
    LeftUpLeg LeftLeg
    LeftLeg LeftFoot
    LeftFoot LeftToes
  end

:SAMPLES-PER-SECOND 30
:FULLY-SPECIFIED
:DEGREES
19
root  -5.72442 39.7673 -4.83123 175.052 41.0973 175.856
RightUpLeg  -3.84847 -9.80897 -9.77738
RightLeg  14.471 -16.8881 -4.97289
RightFoot  -2.72082 -0.86843 11.2428
RightToes  -5.8209e-011 0 -3.6325e-017
Spine  -7.72222 0.828238 -9.87432
Spine1  26.5226 2.08228 -1.78119
HEad  -10.3031 22.294 -0.765581
LeftShoulder1  1.99129 -4.01649 -20.0268
LeftArm  18.3225 7.8887 -55.2927
LeftForeArm  33.7653 -76.6449 -110.772
LeftHand  0.121531 5.78685 32.7954
RightShoulder  1.01007 0.389315 19.607
RightArm  6.63801 -9.17026 60.5776
RightForeArm  3.85977 25.207 5.20181
RightHand  -0.325092 2.36824 -5.06307
LeftUpLeg  4.07073 -0.505424 -4.50865
LeftLeg  5.94782 9.48469 0.610603
LeftFoot  -7.86546 0.000367483 1.51243
LeftToes  -3.91115e-011 -2.2622e-010 9.51032e-012
20
root  -5.73775 39.7704 -4.83091 175.239 40.7579 175.935
RightUpLeg  -3.86903 -10.0884 -9.77698
RightLeg  14.3777 -16.9835 -4.93392
RightFoot  -2.67157 -0.872918 11.2408
RightToes  -5.8209e-011 0 -3.6325e-017
Spine  -7.59686 0.687052 -9.91511
Spine1  26.3346 1.86306 -1.65974
HEad  -10.2546 22.4733 -0.848156
LeftShoulder1  2.00246 -4.06228 -20.0134
LeftArm  18.144 7.99157 -55.309
LeftForeArm  33.4383 -76.6406 -110.794
LeftHand  0.249781 6.24945 32.1616
RightShoulder  1.00663 0.376282 19.6057
RightArm  5.99959 -9.16351 60.6133
RightForeArm  3.73399 25.1661 5.19924
RightHand  -0.326875 2.29653 -5.13164
LeftUpLeg  3.84303 -0.557149 -4.47977
LeftLeg  6.05833 9.19502 0.638578
LeftFoot  -7.86163 -0.000493109 1.5158
LeftToes  -3.91115e-011 -2.2622e-010 9.51032e-012
21
root  -5.75001 39.7727 -4.82844 175.448 40.3765 176.051
RightUpLeg  -3.87141 -10.409 -9.75299
RightLeg  14.274 -17.0794 -4.88269
RightFoot  -2.62848 -0.875861 11.2269
RightToes  -5.8209e-011 0 -3.6325e-017
Spine  -7.44658 0.518866 -9.98723
Spine1  26.1367 1.59125 -1.49368
HEad  -10.1638 22.7328 -0.901031
LeftShoulder1  2.0097 -4.08249 -20.0403
LeftArm  18.0965 8.01425 -55.192
LeftForeArm  32.9191 -76.6586 -110.563
LeftHand  0.353565 6.64317 31.518
RightShoulder  0.998916 0.343972 19.6258
RightArm  5.6011 -9.107 60.5544
RightForeArm  3.59727 25.0957 5.19064
RightHand  -0.346701 2.41419 -5.35702
LeftUpLeg  3.58619 -0.612066 -4.42916
LeftLeg  6.22779 8.87077 0.699506
LeftFoot  -7.87545 0.000628938 1.49285
LeftToes  -3.91115e-011 -2.2622e-010 9.51032e-012
22
root  -5.75479 39.7743 -4.82768 175.603 40.1886 176.158
RightUpLeg  -3.8822 -10.5682 -9.69745
RightLeg  14.2042 -17.1305 -4.84658
RightFoot  -2.59094 -0.879142 11.2262
RightToes  -5.8209e-011 0 -3.6325e-017
Spine  -7.37268 0.421644 -10.025
Spine1  26.0535 1.41828 -1.36376
HEad  -10.1646 23.0689 -0.984587
LeftShoulder1  2.01237 -4.08816 -20.0568
LeftArm  18.153 7.98156 -54.9942
LeftForeArm  32.5393 -76.6949 -110.137
LeftHand  0.358895 6.67781 31.1968
RightShoulder  0.996596 0.328072 19.6774
RightArm  5.46812 -9.01715 60.4296
RightForeArm  3.64578 25.0646 5.18113
RightHand  -0.381487 2.58753 -5.75995
LeftUpLeg  3.42314 -0.614806 -4.36083
LeftLeg  6.34318 8.69141 0.735389
LeftFoot  -7.88756 0.000256325 1.49677
LeftToes  -3.91115e-011 -2.2622e-010 9.51032e-012
23
root  -5.75398 39.7754 -4.83102 175.678 40.2078 176.214
RightUpLeg  -3.90657 -10.5363 -9.64185
RightLeg  14.1707 -17.1573 -4.83962
RightFoot  -2.56125 -0.883713 11.2523
RightToes  -5.8209e-011 0 -3.6325e-017
Spine  -7.37366 0.409833 -10.0208
Spine1  26.0597 1.36628 -1.27939
HEad  -10.2619 23.3833 -1.09179
LeftShoulder1  2.0226 -4.13163 -20.0388
LeftArm  18.22 7.99519 -54.7864
LeftForeArm  32.685 -76.7223 -109.843
LeftHand  0.251181 6.28224 31.3369
RightShoulder  0.995053 0.321249 19.6842
RightArm  5.39306 -8.92778 60.3447
RightForeArm  3.74194 25.0565 5.1743
RightHand  -0.41054 2.65459 -6.13621
LeftUpLeg  3.37812 -0.573615 -4.30415
LeftLeg  6.357 8.66618 0.718836
LeftFoot  -7.88714 -0.00235997 1.53834
LeftToes  -3.91115e-011 -2.2622e-010 9.51032e-012
24
root  -5.75367 39.7762 -4.83691 175.719 40.2489 176.223
RightUpLeg  -3.93632 -10.4906 -9.62314
RightLeg  14.145 -17.1788 -4.83894
RightFoot  -2.54893 -0.886464 11.2668
RightToes  -5.8209e-011 0 -3.6325e-017
Spine  -7.38218 0.406778 -10.0281
Spine1  26.0518 1.32645 -1.19287
HEad  -10.3232 23.6572 -1.17445
LeftShoulder1  2.03829 -4.19199 -20.0365
LeftArm  18.2848 8.03304 -54.5788
LeftForeArm  33.142 -76.7319 -109.772
LeftHand  0.113311 5.77593 31.7063
RightShoulder  0.98509 0.29801 19.5734
RightArm  5.31671 -8.87552 60.3605
RightForeArm  3.84702 25.0114 5.15873
RightHand  -0.423566 2.65283 -6.32491
LeftUpLeg  3.35755 -0.558569 -4.29131
LeftLeg  6.33651 8.67259 0.698383
LeftFoot  -7.88471 -0.00336093 1.5567
LeftToes  -3.91115e-011 -2.2622e-010 9.51032e-012
25
root  -5.75728 39.7767 -4.8426 175.809 40.173 176.243
RightUpLeg  -3.97705 -10.593 -9.62479
RightLeg  14.102 -17.1793 -4.81012
RightFoot  -2.54428 -0.885539 11.2373
RightToes  -5.8209e-011 0 -3.6325e-017
Spine  -7.37551 0.33194 -10.0414
Spine1  25.9952 1.21196 -1.12091
HEad  -10.2865 23.9672 -1.24182
LeftShoulder1  2.04463 -4.19699 -20.0875
LeftArm  18.3902 8.00115 -54.3653
LeftForeArm  33.2851 -76.7338 -109.763
LeftHand  0.050047 5.54653 32.0044
RightShoulder  0.974603 0.28453 19.3741
RightArm  5.29586 -8.88544 60.4443
RightForeArm  4.14166 24.954 5.1305
RightHand  -0.437982 2.68062 -6.51165
LeftUpLeg  3.25347 -0.598461 -4.30064
LeftLeg  6.37915 8.6128 0.727819
LeftFoot  -7.8961 -0.00142196 1.53037
LeftToes  -3.91115e-011 -2.2622e-010 9.51032e-012
26
root  -5.76328 39.7769 -4.84556 175.962 40.0304 176.304
RightUpLeg  -4.03909 -10.7781 -9.6057
RightLeg  14.05 -17.1678 -4.76215
RightFoot  -2.52465 -0.883617 11.1999
RightToes  -5.8209e-011 0 -3.6325e-017
Spine  -7.36189 0.1981 -10.0162
Spine1  25.9127 1.05525 -1.11068
HEad  -10.2166 24.3168 -1.32488
LeftShoulder1  2.04529 -4.16086 -20.1402
LeftArm  18.504 7.92175 -54.1959
LeftForeArm  32.9885 -76.7346 -109.725
LeftHand  0.0573204 5.57004 32.2478
RightShoulder  0.974548 0.308254 19.1979
RightArm  5.26327 -8.92985 60.4965
RightForeArm  4.6628 24.9564 5.10371
RightHand  -0.472954 2.81482 -6.90763
LeftUpLeg  3.0735 -0.649845 -4.28906
LeftLeg  6.48179 8.51114 0.787226
LeftFoot  -7.91346 6.13673e-005 1.51128
LeftToes  -3.91115e-011 -2.2622e-010 9.51032e-012
27
root  -5.76688 39.7767 -4.84512 176.072 39.9766 176.35
RightUpLeg  -4.10826 -10.8516 -9.57316
RightLeg  14.0318 -17.163 -4.74122
RightFoot  -2.49664 -0.883631 11.1989
RightToes  -5.8209e-011 0 -3.6325e-017
Spine  -7.30721 0.101645 -9.97536
Spine1  25.806 0.956015 -1.14702
HEad  -10.1615 24.6236 -1.38763
LeftShoulder1  2.04357 -4.16799 -20.1105
LeftArm  18.5412 7.89669 -54.1353
LeftForeArm  32.6859 -76.7391 -109.653
LeftHand  0.0548119 5.55825 32.5753
RightShoulder  0.979019 0.336199 19.1212
RightArm  5.09815 -8.94213 60.4443
RightForeArm  5.07559 24.9841 5.08822
RightHand  -0.513948 3.05593 -7.29085
LeftUpLeg  2.94822 -0.666462 -4.26703
LeftLeg  6.54389 8.48302 0.816049
LeftFoot  -7.91256 -0.00039622 1.52166
LeftToes  -3.91115e-011 -2.2622e-010 9.51032e-012
